<?xml version="1.0" encoding="utf-8"?>
<!-- Generator: Adobe Illustrator 24.1.0, SVG Export Plug-In . SVG Version: 6.00 Build 0)  -->
<svg version="1.1" id="Layer_1" xmlns="http://www.w3.org/2000/svg" xmlns:xlink="http://www.w3.org/1999/xlink" x="0px" y="0px"
	 viewBox="0 0 299.4 227.8" style="enable-background:new 0 0 299.4 227.8;" xml:space="preserve">
<style type="text/css">
	.st0{fill:#52D3D8;}
</style>
<g>
	<g>
		<path class="st0" d="M93.6,141.1c0.9,0,1.8,0,2.7,0c58.3,0,116.6,0,175,0c12.9,0,23.4-7.5,27-19.2c5.4-17.7-7.6-35.2-26.2-35.2
			c-48.9-0.1-97.8,0-146.7,0c-10.5,0-21.1,0-32,0c0.8-0.9,1.3-1.5,1.9-2.1c12.7-12.7,25.4-25.3,37.9-38c7.3-7.4,9.7-16.4,7-26.4
			c-2.8-10.2-9.6-16.8-19.9-19.3c-9.5-2.3-18.2,0-25.1,6.8c-29.1,28.9-58.2,58-87.2,87.1C-2.7,105.5-2.6,122.4,8,133.1
			c28.9,29,57.8,57.9,86.8,86.8c10.7,10.6,27.7,10.4,38.3-0.2c10.6-10.6,10.7-27.6,0.1-38.3c-12.6-12.7-25.3-25.3-38-38
			c-0.6-0.6-1.4-1.1-2.1-1.7C93.4,141.5,93.5,141.3,93.6,141.1z"/>
			<animate attributeName="fill" values="red;blue;red" dur="10s" repeatCount="indefinite" />
	</g>
</g>
</svg>
