<?xml version="1.0" encoding="utf-8"?>
<!-- Generator: Adobe Illustrator 24.1.0, SVG Export Plug-In . SVG Version: 6.00 Build 0)  -->
<svg version="1.1" id="Layer_1" xmlns="http://www.w3.org/2000/svg" xmlns:xlink="http://www.w3.org/1999/xlink" x="0px" y="0px"
	 viewBox="0 0 576.7 149.4" style="enable-background:new 0 0 576.7 149.4;" xml:space="preserve">
<style type="text/css">
	.st0{fill:#419AAC;}
	.st1{fill:#A0A0A0;}
	.st2{fill:url(#SVGID_1_);}
</style>
<g>
	<g>
		<g>
			<path class="st0" d="M186.7,48l-2.5,12.4H206l-1.8,8.7h-21.6l-3.4,17.1h-10.9l9.4-46.9H213l-1.8,8.7H186.7z"/>
			<path class="st0" d="M214.2,70.6c0-1.6,0.2-3.3,0.5-5l5.2-26.3h10.9l-5.2,26.1c-0.3,1.5-0.4,2.7-0.4,4c0,5.7,3.2,8.4,9,8.4
				c6.6,0,10.4-3.6,12.2-12.4l5.2-26.1h10.7L257.1,66c-2.8,13.9-10.8,21-24,21C221.3,87,214.2,80.7,214.2,70.6z"/>
			<path class="st0" d="M297.2,71.7l8.2,14.5H294L286.6,73h-9.2l-2.6,13.1h-10.9l9.4-46.9h19.1c11.7,0,18.4,5.4,18.4,14.5
				C310.6,62.7,305.6,69.1,297.2,71.7z M299.7,54.8c0-4.6-3.2-6.7-8.8-6.7h-8.6L279,64.4h9.2C295.4,64.4,299.7,61,299.7,54.8z"/>
			<path class="st0" d="M365.5,39.3l-9.4,46.9h-8.9l-17.5-29.3l-5.9,29.3h-10.7l9.4-46.9h9l17.5,29.4l5.8-29.4H365.5z"/>
			<path class="st0" d="M376.6,39.3h10.9l-9.4,46.9h-10.9L376.6,39.3z"/>
			<path class="st0" d="M406.5,48.1h-15l1.8-8.8h40.9l-1.8,8.8h-14.9l-7.6,38.1h-10.9L406.5,48.1z"/>
			<path class="st0" d="M433,70.6c0-1.6,0.2-3.3,0.5-5l5.2-26.3h10.9l-5.2,26.1c-0.3,1.5-0.4,2.7-0.4,4c0,5.7,3.2,8.4,9,8.4
				c6.6,0,10.4-3.6,12.2-12.4l5.2-26.1h10.7L475.9,66c-2.8,13.9-10.8,21-24,21C440.1,87,433,80.7,433,70.6z"/>
			<path class="st0" d="M516,71.7l8.2,14.5h-11.5L505.4,73h-9.2l-2.6,13.1h-10.9l9.4-46.9h19.1c11.7,0,18.4,5.4,18.4,14.5
				C529.4,62.7,524.4,69.1,516,71.7z M518.4,54.8c0-4.6-3.2-6.7-8.8-6.7h-8.6l-3.3,16.3h9.2C514.2,64.4,518.4,61,518.4,54.8z"/>
			<path class="st0" d="M550.3,48l-2,10.2H570l-1.7,8.4h-21.8l-2.1,10.9H570l-1.8,8.7h-36.3l9.4-46.9h35.4l-1.8,8.7H550.3z"/>
		</g>
		<g>
			<path class="st1" d="M162.9,110.9c0-7.7,5.6-13.7,14.1-13.7c3.9,0,7.1,1.3,8.7,3.8l-3.1,2.6c-1.2-1.7-3.2-2.7-5.9-2.7
				c-5.8,0-9.5,4.4-9.5,9.8c0,3.8,2.5,6.3,7.1,6.3c2.5,0,4.8-0.8,6.5-2.6l2.5,2.7c-2.2,2.5-5.5,3.7-9.3,3.7
				C167.1,120.6,162.9,116.6,162.9,110.9z"/>
			<path class="st1" d="M197.6,110.9c0-7.7,5.6-13.7,14-13.7c6.9,0,10.9,4,10.9,9.8c0,7.7-5.6,13.7-14,13.7
				C201.6,120.6,197.6,116.6,197.6,110.9z M218.2,107.1c0-3.8-2.5-6.3-7.1-6.3c-5.7,0-9.3,4.5-9.3,9.8c0,3.8,2.4,6.3,7,6.3
				C214.6,116.9,218.2,112.4,218.2,107.1z"/>
			<path class="st1" d="M260.8,97.4l-4.6,22.8h-3.5l-9.4-16l-3.2,16H236l4.6-22.8h3.5l9.4,16l3.2-16H260.8z"/>
			<path class="st1" d="M281.9,101l-1.4,7h11.1l-0.7,3.6h-11l-1.8,8.7h-4.2l4.6-22.8h16.7l-0.7,3.6H281.9z"/>
			<path class="st1" d="M310.6,97.4h4.2l-4.6,22.8H306L310.6,97.4z"/>
			<path class="st1" d="M345.8,108.6h4l-1.9,9.2c-2.3,1.8-5.4,2.8-8.5,2.8c-6.9,0-11.1-3.9-11.1-9.8c0-7.7,5.6-13.7,14.2-13.7
				c4.2,0,7.3,1.3,9.2,3.8l-3.1,2.5c-1.5-1.8-3.5-2.6-6.3-2.6c-5.9,0-9.7,4.3-9.7,9.8c0,3.8,2.5,6.3,7.3,6.3c1.6,0,3.1-0.4,4.4-1.1
				L345.8,108.6z"/>
			<path class="st1" d="M366,112.8c0-0.8,0.1-1.6,0.3-2.4l2.6-12.9h4.2l-2.6,12.8c-0.1,0.8-0.2,1.4-0.2,2c0,3.1,1.8,4.6,5.1,4.6
				c3.6,0,5.8-2,6.8-6.7l2.5-12.8h4.2l-2.6,13.1c-1.3,6.7-5.2,10.1-11.3,10.1C369.3,120.6,366,117.6,366,112.8z"/>
			<path class="st1" d="M417.1,113.1l4.1,7.2h-4.5l-3.8-6.7h0h-5.6l-1.3,6.7h-4.3l4.6-22.8h8.9c5.5,0,8.7,2.5,8.7,6.9
				C423.7,108.8,421.3,111.9,417.1,113.1z M419.5,104.7c0-2.5-1.8-3.7-4.9-3.7h-4.9l-1.8,9.1h5.1
				C417.1,110.1,419.5,108.3,419.5,104.7z"/>
			<path class="st1" d="M453,115h-11.5l-3.3,5.3h-4.5l14.9-22.8h4.2l5.7,22.8h-4.2L453,115z M452.2,111.7l-2.3-10.1l-6.3,10.1H452.2
				z"/>
			<path class="st1" d="M480.1,101h-7.6l0.7-3.6h19.4l-0.7,3.6h-7.6l-3.8,19.3h-4.2L480.1,101z"/>
			<path class="st1" d="M502.8,110.9c0-7.7,5.6-13.7,14-13.7c6.9,0,10.9,4,10.9,9.8c0,7.7-5.6,13.7-14,13.7
				C506.9,120.6,502.8,116.6,502.8,110.9z M523.5,107.1c0-3.8-2.5-6.3-7-6.3c-5.7,0-9.3,4.5-9.3,9.8c0,3.8,2.4,6.3,7,6.3
				C519.9,116.9,523.5,112.4,523.5,107.1z"/>
			<path class="st1" d="M556.7,113.1l4.1,7.2h-4.5l-3.8-6.7h0h-5.6l-1.3,6.7h-4.3l4.6-22.8h8.9c5.5,0,8.7,2.5,8.7,6.9
				C563.4,108.8,560.9,111.9,556.7,113.1z M559.1,104.7c0-2.5-1.8-3.7-4.9-3.7h-4.9l-1.8,9.1h5.1
				C556.7,110.1,559.1,108.3,559.1,104.7z"/>
		</g>
	</g>
	<g>
		<g>
			<linearGradient id="SVGID_1_" gradientUnits="userSpaceOnUse" x1="67.4545" y1="80.089" x2="76.6802" y2="87.0083">
				<stop  offset="0.4679" style="stop-color:#A0A0A0"/>
				<stop  offset="0.484" style="stop-color:#419AAC"/>
			</linearGradient>
			<path class="st2" d="M152.2,59.9C152.3,59.9,152.3,59.9,152.2,59.9c0.4-1.6,0.6-3.1,0.3-4.6c-1.5-7.2-5.7-11.8-13-13.5
				c-1-0.2-1.4-0.7-1.5-1.8c-0.3-4.5-1.2-8.7-2.7-12.8c-3.5-9.4-9.5-16.5-18.1-21.4c-5.8-3.3-12.3-5.4-19.7-5.6
				C91.3,0.1,85-0.3,78.7,0.4C66.4,1.6,55,6.8,44.6,15.2C36.3,22,30,30.1,25.6,39.5c-0.7,1.6-1.6,2.3-3.3,2.6
				c-4.3,0.8-8.2,3-11.7,6.1C6,52.4,3.4,57.4,2.4,63c-1,5.9,0.3,10.7,3.7,14.7C7,78.7,7.2,79.7,7,81c-2.2,11.1-4.3,22.1-6.4,33.2
				C0.2,116.1,0,118,0,119.9c0.1,4.2,1.8,7.5,4.7,10.1c0.8,0.7,1,1.4,0.7,2.5c-0.4,1.6-0.7,3.2-0.9,4.8c-0.5,3.1,0,5.9,1.6,8.2
				c1.5,2.2,3.6,3.4,6.3,4c1.4,0,2.7,0,4.1,0c2.3-0.2,4.5-0.8,6.6-2.2c4.2-2.9,6.5-6.7,7.2-11.4c0.4-2.6,0.5-2.6,3-2.6
				c20.2,0,40.3,0,60.5,0c0.4,0,0.9,0,1.3,0c0.9,0,1.2,0.4,1,1.2c-0.2,0.9-0.4,1.8-0.5,2.8c-0.3,1.9-0.3,3.7,0.3,5.3
				c1.2,3.8,3.8,6.2,8,6.8c1.3,0,2.5,0,3.8,0c6.5-1.1,10.8-4.5,13-10.5c0.8-2.1,1-4.3,1.4-6.4c0.2-1.2,0.7-2,1.9-2.7
				c2.6-1.6,4.7-3.7,6.5-6.3c1.9-2.8,2.9-5.7,3.5-8.8c1-4.6,1.8-9.1,2.7-13.7c1.3-6.8,2.6-13.6,3.9-20.4c0.2-0.9,0.3-1.7,1.2-2.4
				c4.7-3.5,8-7.8,9.5-13.1c0-0.2,0.1-0.4,0.1-0.6C151.3,63.1,151.9,61.5,152.2,59.9z M33.6,41.6c9.3-18.1,23.6-29.3,42.9-32.4
				c9.5-1.6,19-1.6,27.7,1.1c13.7,4.3,21.7,13.7,24.6,27.7c0,0,0,0.1,0,0.1c0.2,1.3,0.8,2.7,0.4,4c-0.5,1.4-2.4,1.2-3.7,1.8
				c-7.6,3.8-12.7,9.5-14.5,17.4c-1.6,6.7-2.7,13.4-3.9,20.1c-0.3,1.5-0.8,1.7-2.1,1.7c-10.5-0.1-21,0-31.5,0c-10.6,0-21.2,0-31.8,0
				c-1.2,0-1.4-0.3-1.1-1.5c1.2-5.9,2.3-11.8,3.5-17.8c1.4-7.3-0.1-13.3-4.9-17.9c-1.4-1.3-3.1-2.4-5-3
				C33.3,42.7,33.2,42.4,33.6,41.6z M112.4,95.7c-0.5,2-2.3,3.7-4.4,3.9c-0.5,0.1-1.1,0.1-1.6,0.1c-24.1,0-48.3,0-72.4,0
				c-0.8,0-1.7,0.1-2.4-0.2c-1.7-0.6-2.5-2.4-1.9-4.4c0.5-1.8,2.4-3.4,4.3-3.6c0.5-0.1,1.1,0,1.6,0c12,0,24.1,0,36.1,0
				c12.3,0,24.6,0,36.8,0C111.4,91.4,112.9,93.2,112.4,95.7z M20.1,139.6c-1.3,1.3-2.8,1.8-4.4,1.5c-1.6-0.3-2.6-1.7-2.5-3.5
				c0.1-1.5,0-3.4,1-4.4c0.9-0.9,2.7-0.1,3.8-0.3c0.5,0,0.7,0,0.9,0c1.1,0.2,3.2-0.6,3.2,0.4C22.1,135.3,22,137.6,20.1,139.6z
				 M113.4,133.9c-0.4,1.3-0.4,2.6-0.9,3.9c-0.8,2-2.7,3.4-4.6,3.4c-1.9,0-3.3-1.2-3.4-3.1c-0.1-1.5,0.5-3,0.7-4.5
				c0.1-0.7,0.5-0.7,1-0.7c1.1,0,2.1,0,3.2,0c1.1,0,2.1,0,3.2,0C113.2,132.8,113.6,133,113.4,133.9z M136.6,72.3
				c-2.6,1.5-3.8,3.3-4.3,6c-2.3,12.3-4.7,24.7-7.1,37c-1.1,5.8-5.2,9.2-11,9.2c-16.3,0-32.5,0-48.8,0c-16.3,0-32.5,0-48.8,0
				c-4.8,0-7.6-2.4-7.7-6.6c0-0.9,0.2-1.8,0.3-2.7c2.4-12.4,4.7-24.9,7.2-37.3c0.5-2.4,0-4-1.7-5.3c-4.6-3.4-5.1-10-1.4-15.5
				c4-5.8,11-8.6,16.5-6.4c4.5,1.8,6.5,5.6,6.1,10.6c-0.5,5.9-2.2,11.9-3.2,17.9c0,0.2-0.1,0.5-0.1,0.7c-0.1,2.6-1.1,4.2-3.9,5.5
				c-4.8,2.4-7.9,8.1-7.6,12.8c0.3,5.3,3.8,9,8.8,9.6c1.2,0.1,2.4,0.2,3.6,0.2c23.8,0,47.7,0,71.5,0c5.3,0,9.8-2,13.3-6.8
				c4.4-6,3.3-13.9-2.4-16.7c-0.9-0.5-1.1-1-0.9-2.1c1.3-6.6,2.5-13.2,3.9-19.8c1.9-9.4,12.4-15.3,20-11.4
				C146.5,55.2,145.3,67.1,136.6,72.3z"/>
		</g>
	</g>
</g>
</svg>
